<svg width="79" height="89" viewBox="0 0 79 89" fill="none" xmlns="http://www.w3.org/2000/svg">
<g clip-path="url(#clip0_293_1284)">
<path d="M44.5593 16.1721V14.6291C44.5593 14.5939 44.5749 14.5588 44.6022 14.5275C44.6257 14.4963 44.6569 14.4767 44.6882 14.4728L45.6296 14.3283H45.6413H45.653C45.6569 14.3322 45.6569 14.3361 45.6608 14.3439V15.8869C45.6608 15.9221 45.6452 15.9572 45.6179 15.9885C45.5944 16.0197 45.5632 16.0393 45.5319 16.0432C45.2624 16.0861 44.8327 16.1799 44.5788 16.1877H44.5671C44.5632 16.1838 44.5632 16.1799 44.5593 16.1721ZM37.5398 17.2737H37.5515H37.5632L38.5046 17.1291C38.5359 17.1252 38.5671 17.1018 38.5906 17.0745C38.6179 17.0432 38.6335 17.008 38.6335 16.9729V15.4299C38.6335 15.4221 38.6296 15.4182 38.6257 15.4143H38.614H38.6023L37.6609 15.5588C37.6296 15.5627 37.5984 15.5861 37.5749 15.6135C37.5476 15.6447 37.532 15.6799 37.532 15.715V17.258C37.532 17.2659 37.5359 17.2698 37.5398 17.2737ZM54.3168 10.8792L54.7035 10.2659L51.4457 8.89869L50.4926 9.26197L51.6645 11.012L54.3129 10.8792L54.3168 10.8792ZM41.0508 16.7308H41.0625H41.0742L42.0156 16.5862C42.0469 16.5823 42.0781 16.5589 42.1016 16.5316C42.1289 16.5003 42.1445 16.4651 42.1445 16.43V14.887C42.1445 14.8792 42.1406 14.8753 42.1367 14.8714H42.125H42.1133L41.1719 15.0159C41.1406 15.0198 41.1094 15.0432 41.0859 15.0706C41.0586 15.1018 41.043 15.137 41.043 15.1721V16.7151C41.043 16.723 41.0469 16.7269 41.0508 16.7308ZM34.0274 17.6253H34.0391H34.0508L34.9922 17.4808C35.0235 17.4769 35.0547 17.4534 35.0782 17.4261C35.1055 17.3948 35.1211 17.3597 35.1211 17.3245V15.7815C35.1211 15.7737 35.1172 15.7698 35.1133 15.7659H35.1016H35.0899L34.1485 15.9104C34.1172 15.9143 34.086 15.9378 34.0625 15.9651C34.0352 15.9964 34.0196 16.0315 34.0196 16.0667V17.6097C34.0196 17.6175 34.0235 17.6214 34.0274 17.6253ZM18.0044 11.9417L20.8872 14.4456C20.8989 14.4573 20.9145 14.469 20.9262 14.4808L21.1801 14.6995C23.1449 13.4925 25.602 12.5823 28.5707 12.2073L11.3477 4.10181L9.70324 4.72681L17.9649 11.9104C17.9767 11.9221 17.9887 11.93 18.0044 11.9417ZM44.4614 20.18L42.6294 19.1136C40.6372 19.1605 38.8403 19.4886 37.1997 20.0511C35.8286 20.5198 34.5708 21.1488 33.4028 21.9144L40.3716 24.5433C40.3833 24.5472 40.395 24.5511 40.4067 24.555L45.3989 26.4378C45.5591 26.4183 45.7153 26.4808 45.8208 26.598L61.5788 32.5355L63.6061 31.3167L44.5041 20.2037C44.4885 20.1959 44.4728 20.1881 44.4572 20.1763L44.4614 20.18ZM24.3524 21.1097C24.4539 21.0863 24.5438 21.0355 24.6141 20.9613C24.6844 20.8909 24.7352 20.7972 24.7586 20.6956L25.3328 18.0589C25.3485 17.9847 25.3485 17.9183 25.3328 17.8597C25.3172 17.8089 25.2899 17.7581 25.2508 17.7191C25.2117 17.6761 25.161 17.6488 25.1102 17.637C25.0516 17.6214 24.9891 17.6214 24.9149 17.637C23.8524 17.8714 22.7274 18.0667 21.661 18.0785C20.7313 18.0863 19.8524 17.9535 19.1024 17.5785C18.1219 18.5745 17.3797 19.6488 16.8758 20.7269C17.9305 21.0862 19.0242 21.3245 20.1688 21.4183C21.4891 21.5277 22.8758 21.4417 24.3485 21.1136L24.3524 21.1097ZM21.411 15.7113C23.4657 14.3871 26.1258 13.4066 29.4266 13.098L30.4696 13.0472H30.5008L54.6138 11.848C54.7818 11.8402 54.9302 11.7464 55.0083 11.6136L55.8169 10.3363C55.8326 10.3168 55.8443 10.2973 55.856 10.2738L59.5865 4.38323L61.024 4.22307L60.8209 11.8403L60.3834 11.641C60.3248 11.6137 60.2584 11.5981 60.1881 11.5981C58.1061 11.5629 56.485 12.2231 55.149 13.3169C55.0552 13.3872 54.9849 13.4888 54.9615 13.6098C54.9068 13.8755 55.0747 14.1333 55.3404 14.1919L57.0709 14.5552C54.0318 15.688 51.0201 16.8404 48.0123 17.9888C46.9303 18.4028 45.8482 18.8169 44.7662 19.2271L42.9967 18.1959C42.9225 18.1529 42.8365 18.1295 42.7428 18.1295C40.5866 18.1685 38.6412 18.5162 36.8756 19.1177C35.1022 19.7232 33.5084 20.5825 32.0553 21.6411C31.981 21.6958 31.9185 21.7739 31.8834 21.8677C31.7896 22.1216 31.9146 22.4029 32.1685 22.5005L34.0669 23.2153C32.2388 23.8755 30.3989 24.5239 28.5396 25.1606C26.5982 25.8247 24.6568 26.4653 22.7115 27.0825C22.6881 27.0864 22.6647 27.0943 22.6451 27.106C22.3248 27.2075 22.0045 27.3052 21.6881 27.4068L21.6725 27.4107C19.5241 28.1489 17.985 27.8599 17.0748 26.9693C17.0435 26.9419 17.0162 26.9107 16.9888 26.8794L16.981 26.8716C16.4263 26.27 16.1138 25.4185 16.0592 24.4302C16.0084 23.481 16.192 22.4185 16.6177 21.3286C17.7388 21.7114 18.9029 21.9731 20.1216 22.0708C21.5005 22.1841 22.9497 22.0942 24.4927 21.7505C24.7193 21.6997 24.9224 21.5864 25.0787 21.4263C25.2349 21.2661 25.3521 21.063 25.399 20.8364L25.9732 18.1997C26.0123 18.0239 26.0084 17.856 25.9654 17.6958C25.9224 17.5318 25.8365 17.3833 25.7154 17.2583C25.5904 17.1333 25.4459 17.0474 25.2818 17.0044C25.1256 16.9614 24.9537 16.9575 24.7779 16.9966C23.7467 17.2231 22.6607 17.4146 21.6568 17.4263C20.9146 17.4341 20.2115 17.3442 19.6138 17.0903C20.1411 16.6099 20.731 16.1528 21.3794 15.7348C21.3911 15.727 21.3989 15.7231 21.4106 15.7153L21.411 15.7113ZM43.903 16.1566C43.903 16.1957 43.9069 16.2308 43.9108 16.2699C43.9381 16.4378 44.0162 16.5785 44.1334 16.68C44.2506 16.7816 44.4069 16.8441 44.5749 16.8441C44.6061 16.8441 44.6374 16.8402 44.6725 16.8363L45.6295 16.6878C45.8209 16.6566 45.9928 16.555 46.1178 16.4105C46.2389 16.266 46.317 16.0824 46.317 15.8871V14.3598C46.317 14.3207 46.3131 14.2855 46.3092 14.2465C46.2819 14.0785 46.2038 13.9379 46.0866 13.8363C45.9694 13.7348 45.8131 13.6723 45.6452 13.6723C45.61 13.6723 45.5748 13.6762 45.5358 13.6801L44.5905 13.8246C44.3991 13.8559 44.2272 13.9574 44.1022 14.102C43.9811 14.2465 43.903 14.4301 43.903 14.6254L43.903 16.1566ZM40.3913 16.6996C40.3913 16.7386 40.3952 16.7738 40.3991 16.8128C40.4264 16.9808 40.5046 17.1214 40.6217 17.223C40.7389 17.3246 40.8952 17.3871 41.0631 17.3871C41.0983 17.3871 41.1335 17.3832 41.1725 17.3793L42.1178 17.2347C42.3093 17.2035 42.4811 17.1019 42.6061 16.9574C42.7272 16.8129 42.8053 16.6293 42.8053 16.4339V14.9066C42.8053 14.8676 42.8014 14.8324 42.7975 14.7934C42.7702 14.6254 42.6921 14.4848 42.5749 14.3832C42.4577 14.2816 42.3014 14.2191 42.1335 14.2191C42.1022 14.2191 42.071 14.2231 42.0358 14.227L41.0788 14.3754C40.8874 14.4066 40.7155 14.5082 40.5905 14.6527C40.4694 14.7973 40.3913 14.9809 40.3913 15.1762V16.7035L40.3913 16.6996ZM36.8796 17.2425C36.8796 17.2816 36.8835 17.3168 36.8874 17.3558C36.9147 17.5238 36.9929 17.6644 37.11 17.766C37.2272 17.8675 37.3835 17.93 37.5515 17.93C37.5866 17.93 37.6218 17.9261 37.6608 17.9222L38.6061 17.7777C38.7976 17.7464 38.9694 17.6449 39.0944 17.5004C39.2155 17.3558 39.2936 17.1722 39.2936 16.9769V15.4496C39.2936 15.4106 39.2897 15.3754 39.2858 15.3363C39.2585 15.1684 39.1804 15.0277 39.0632 14.9262C38.946 14.8246 38.7897 14.7621 38.6218 14.7621C38.5866 14.7621 38.5514 14.766 38.5124 14.7699L37.5671 14.9145C37.3757 14.9457 37.2038 15.0473 37.0788 15.1918C36.9577 15.3363 36.8796 15.5199 36.8796 15.7152V17.2425ZM33.3679 17.598C33.3679 17.6371 33.3718 17.6722 33.3757 17.7113C33.403 17.8793 33.4812 18.0199 33.5983 18.1214C33.7155 18.223 33.8718 18.2855 34.0398 18.2855C34.0749 18.2855 34.1101 18.2816 34.1491 18.2777L35.0944 18.1332C35.2859 18.1019 35.4577 18.0004 35.5827 17.8558C35.7038 17.7113 35.7819 17.5277 35.7819 17.3324V15.8051C35.7819 15.766 35.778 15.7309 35.7741 15.6918C35.7468 15.5238 35.6687 15.3832 35.5515 15.2816C35.4343 15.1801 35.278 15.1176 35.1101 15.1176C35.0749 15.1176 35.0397 15.1215 35.0007 15.1254L34.0554 15.2699C33.864 15.3012 33.6921 15.4027 33.5671 15.5473C33.446 15.6918 33.3679 15.8754 33.3679 16.0707V17.598ZM30.5085 18.1527C30.5085 18.1605 30.5124 18.1644 30.5163 18.1683H30.528C30.7819 18.1566 31.2116 18.0629 31.4811 18.0238C31.5124 18.0199 31.5436 17.9964 31.5671 17.9691C31.5944 17.9379 31.61 17.9027 31.61 17.8675V16.3245C31.61 16.3167 31.6061 16.3128 31.6022 16.3089H31.5905H31.5788L30.6374 16.4535C30.6061 16.4574 30.5749 16.4808 30.5514 16.5081C30.5241 16.5394 30.5085 16.5745 30.5085 16.6097L30.5085 18.1527ZM56.6535 13.4613L58.923 13.9379C58.9386 13.9418 58.9542 13.9418 58.9698 13.9457L63.5479 14.9066L64.3878 14.5277L60.0792 12.5785C58.7354 12.5707 57.6145 12.8988 56.6535 13.4613ZM74.6455 50.2543C74.6455 68.8053 59.5515 83.8993 41.0005 83.8993C22.4495 83.8993 7.35547 68.8053 7.35547 50.2543C7.35547 41.8988 10.4414 33.8873 16.0391 27.6923C16.2188 27.4931 16.5273 27.4775 16.7266 27.6571C16.8438 27.7626 16.8867 27.9071 16.8789 28.0517C18.0586 28.8798 19.7734 29.1025 22 28.3368C22.293 28.247 22.5898 28.1532 22.8828 28.0595C23.1563 28.0868 23.4531 28.1064 23.75 28.122C24.1992 28.1454 24.6523 28.1728 25.0508 28.2509C26.3946 28.5243 27.3516 29.5868 26.3828 34.3329C25.6992 37.6806 27.0352 39.2001 28.707 41.1063C30.3008 42.9227 32.2304 45.1219 32.7773 49.8915C33.1445 53.0751 34.5742 55.4384 36.1718 56.4892C36.8163 56.915 37.496 57.1337 38.1562 57.122C38.8359 57.1103 39.4882 56.8564 40.0507 56.329C41.1913 55.2587 41.9648 53.0243 41.8202 49.3563C41.7968 48.7196 42.0858 48.661 42.4335 48.5907C43.6054 48.3524 45.0937 48.0517 44.4023 42.4462C44.2382 41.1103 44.6288 41.0907 45.2695 41.0634C46.6992 40.997 48.8711 40.8994 50.5547 36.0322C50.8242 35.251 52.5859 35.3135 54.375 35.3721C55.8086 35.4189 57.2539 35.4697 58.2305 35.0674C59.1524 34.6885 59.6602 34.0049 59.418 32.7627L61.4532 33.5283C61.5899 33.5791 61.7462 33.5713 61.879 33.4892L64.8048 31.7314C64.8829 31.6885 64.9493 31.626 64.9962 31.5478C65.1329 31.3135 65.0509 31.0127 64.8165 30.876L58.3751 27.1299C59.6329 26.8955 61.4376 26.9697 62.7813 27.0205C63.2266 27.0361 63.6211 27.0517 63.961 27.0478C60.1798 23.2861 55.4727 20.4189 50.145 18.8681C49.8872 18.7939 49.7387 18.5244 49.813 18.2666C49.8872 18.0088 50.1567 17.8603 50.4145 17.9345C57.2661 19.9267 63.4305 24.1689 67.7775 29.8755C72.2697 35.77 74.6408 42.8135 74.6408 50.2465L74.6455 50.2543ZM8.32547 50.2543C8.32547 57.1918 10.5052 63.6293 14.2083 68.9263C14.8762 69.274 15.3528 69.8208 15.7552 70.2857C16.2239 70.8287 16.6106 71.2779 17.1693 71.3677C21.3568 72.0357 22.4818 73.6372 23.2787 74.7779C23.9193 75.692 24.392 76.3677 25.7084 76.317C27.8959 76.2311 28.5404 75.5709 28.5014 74.5982C28.4779 73.9927 28.1264 73.3326 27.7514 72.6294C27.2201 71.6372 26.6342 70.5317 27.1693 69.7778C27.3529 69.52 27.4662 69.2505 27.5248 68.9731C27.7162 68.0473 27.2475 67.0903 26.4857 66.1958C25.7826 65.3716 24.8216 64.5942 23.9271 63.9536C23.0013 63.2934 22.1029 62.7739 21.6302 62.5161C20.431 56.813 19.5677 56.4419 17.5833 55.5903C16.7239 55.2231 15.6263 54.7505 14.1458 53.563C12.8216 52.5005 12.7903 51.4575 12.7552 50.106C12.7005 48.1607 12.6185 45.6568 9.44271 41.7974C8.71224 44.5318 8.32547 47.3715 8.32547 50.2543ZM73.6775 50.2543C73.6775 47.5043 73.3259 44.8129 72.6619 42.227C72.2751 42.8247 71.6931 43.6372 71.2322 43.6176C64.1384 43.3363 64.1814 43.7895 64.326 45.2309C64.3728 45.6957 64.4353 46.3403 63.5838 47.1918C61.1268 49.6488 61.0994 52.1566 61.0838 53.9691C61.0721 55.2113 61.0642 56.0238 59.9041 55.9769C56.1385 55.8285 55.951 56.7894 55.7166 57.9847C55.6072 58.5433 55.4861 59.1761 54.4627 59.6839C51.8689 60.9691 52.1619 62.7464 53.0916 64.6175C53.3377 65.1136 53.615 65.5902 53.8924 66.0628C54.7439 67.5237 55.5877 68.969 54.9002 69.9339C51.4314 74.805 52.5291 75.555 54.2205 76.7112C54.9509 77.2112 55.8221 77.8128 56.2752 79.1292C66.6152 73.637 73.6732 62.7582 73.6732 50.2582L73.6775 50.2543Z" fill="white"/>
</g>
<defs>
<clipPath id="clip0_293_1284">
<rect width="79" height="89" fill="white"/>
</clipPath>
</defs>
</svg>
