<svg width="76" height="94" viewBox="0 0 76 94" fill="none" xmlns="http://www.w3.org/2000/svg">
<g clip-path="url(#clip0_293_1276)">
<path fill-rule="evenodd" clip-rule="evenodd" d="M4.86573 44.3957L3.63281 45.0773V89.9276L19.1637 81.342C19.5836 81.1027 20.1142 81.0807 20.569 81.3303L31.3386 87.2839C33.5305 85.6481 33.8766 78.6794 28.2294 79.0006C19.6799 79.487 23.3812 62.2784 24.001 58.2709C24.7756 53.2631 24.2559 51.6018 23.1158 51.4255C20.6749 51.0479 15.1505 54.6913 11.0155 54.4933C7.55546 54.3276 4.97494 52.0049 4.86573 44.3957ZM68.4497 62.0822C69.2858 62.3987 69.5529 62.5492 70.484 62.8642C70.8245 62.9795 71.1599 63.0908 71.4897 63.1989V45.0771L65.8249 41.9457C65.2691 45.3784 63.8856 48.4186 60.1368 49.2792C57.6787 49.8434 53.9735 51.0442 53.7559 52.61C53.702 52.9975 53.8694 53.4624 54.2222 53.9855C54.9198 55.0193 55.6934 55.7331 57.4254 56.8336C58.3923 56.4923 59.4916 56.2834 60.7099 56.1937C64.4157 56.1937 67.5187 58.68 68.4497 62.0822ZM38.2703 67.752C37.8042 68.3952 36.9047 68.5389 36.2615 68.0728C35.6184 67.6067 35.4746 66.7073 35.9409 66.0641C36.6652 65.0664 37.645 64.2052 38.7371 63.6373C39.4425 63.2706 40.3117 63.5452 40.6784 64.2506C41.045 64.956 40.7704 65.8252 40.065 66.1918C39.3403 66.5686 38.7516 67.0905 38.2703 67.752ZM37.6158 73.2867C37.2037 72.3139 37.0835 71.2528 37.2509 70.205C37.3751 69.422 36.8411 68.6863 36.0579 68.5619C35.2749 68.4377 34.5393 68.9719 34.4151 69.7549C34.1606 71.3478 34.3447 72.9179 34.9713 74.4008C35.2788 75.131 36.1203 75.4737 36.8505 75.1661C37.5809 74.8584 37.9233 74.017 37.6158 73.2867ZM42.6968 76.6537C43.4892 76.6537 44.1316 77.2961 44.1316 78.0885C44.1316 78.8811 43.4892 79.5233 42.6968 79.5233C40.8192 79.5233 39.0059 78.8883 37.5502 77.7527C36.9256 77.2647 36.8148 76.363 37.3026 75.7383C37.7905 75.1136 38.6923 75.0029 39.3169 75.4906C40.2439 76.214 41.5012 76.6537 42.6968 76.6537ZM53.3292 76.6543C54.1215 76.6543 54.7639 77.2967 54.7639 78.0891C54.7639 78.8814 54.1215 79.5238 53.3292 79.5238L47.3165 79.5233C46.5241 79.5233 45.8817 78.8809 45.8817 78.0885C45.8817 77.2961 46.5241 76.6537 47.3165 76.6537L53.3292 76.6543ZM63.439 76.6487C64.2345 76.6487 64.8795 77.2936 64.8795 78.0891C64.8795 78.8846 64.2345 79.5295 63.439 79.5295H57.8092C57.0137 79.5295 56.3688 78.8846 56.3688 78.0891C56.3688 77.2936 57.0137 76.6487 57.8092 76.6487H63.439ZM44.3097 61.2405C44.9809 60.8178 45.8677 61.0193 46.2903 61.6906C46.7129 62.3618 46.5114 63.2486 45.8402 63.6712C45.08 64.1506 44.2287 64.5318 43.364 64.7744C42.5997 64.989 41.806 64.5431 41.5916 63.7786C41.3773 63.0142 41.8231 62.2206 42.5876 62.0063C43.2099 61.8316 43.7698 61.5814 44.3097 61.2405ZM47.2884 56.8178C47.154 57.5826 46.895 58.2915 46.5171 58.9478C46.1224 59.6345 46.3593 60.5113 47.046 60.906C47.7329 61.3007 48.6095 61.0638 49.0042 60.3771C49.552 59.426 49.936 58.3883 50.1242 57.3129C50.2609 56.5299 49.7369 55.7842 48.9539 55.6475C48.1707 55.5107 47.4249 56.0348 47.2884 56.8178ZM46.2735 52.0357C45.8324 51.3769 46.0087 50.4851 46.6674 50.0439C47.3262 49.6028 48.2181 49.7791 48.6594 50.4379C49.1649 51.1906 49.5267 51.9257 49.8067 52.7937C50.0491 53.5488 49.6333 54.3576 48.8784 54.5998C48.1233 54.8422 47.3145 54.4264 47.0723 53.6715C46.8962 53.1256 46.5932 52.5102 46.2735 52.0357ZM41.8346 49.1971C42.5681 49.3112 43.355 49.586 44.0029 49.9468C44.6958 50.3322 45.5701 50.0827 45.9552 49.3898C46.3404 48.6969 46.0912 47.8226 45.3981 47.4375C44.4058 46.8848 43.4094 46.5378 42.2732 46.3615C41.4902 46.2404 40.7572 46.7769 40.6359 47.5601C40.5149 48.3428 41.0516 49.076 41.8346 49.1971ZM35.1121 49.1248C34.3166 49.1248 33.6717 48.4799 33.6717 47.6844C33.6717 46.8889 34.3166 46.2439 35.1121 46.2439H38.2385C39.0339 46.2439 39.6789 46.8889 39.6789 47.6844C39.6789 48.4799 39.0339 49.1248 38.2385 49.1248H35.1121ZM27.1708 49.1248C26.3753 49.1248 25.7304 48.4799 25.7304 47.6844C25.7304 46.8889 26.3753 46.2439 27.1708 46.2439H31.0438C31.8392 46.2439 32.4842 46.8889 32.4842 47.6844C32.4842 48.4799 31.8392 49.1248 31.0438 49.1248H27.1708ZM27.228 40.1611L36.8692 45.491C37.324 45.7406 37.8547 45.7186 38.2745 45.4793L55.2458 36.0974L63.1239 40.4524C62.8296 43.0942 62.2377 45.8477 59.4955 46.4772C55.6942 47.3497 51.3671 48.9206 50.9088 52.2163C50.5644 54.6946 52.6624 57.0023 54.7199 58.4758C53.421 59.77 52.7059 61.6477 52.6846 64.2194C52.6846 66.2773 53.4663 68.3363 55.0297 69.8998L59.6917 74.5617C60.2542 75.1242 61.1661 75.1242 61.7285 74.5617L66.3905 69.8998C67.6893 68.6009 68.4485 66.96 68.6683 65.2618L71.4897 66.215V89.9276L55.9378 81.3303C55.483 81.0807 54.9523 81.1027 54.5324 81.342L37.5613 90.7237L33.9523 88.7286C36.1751 86.0824 36.3179 81.4068 34.1099 78.6012C32.8575 77.01 30.8834 75.971 28.0722 76.1309C26.3841 76.2268 25.7439 74.0576 25.5886 71.3295C25.3626 67.3551 26.2289 62.3051 26.6601 59.7909C27.8128 53.0669 27.2081 49.1546 23.555 48.5897C19.9531 48.0325 14.6702 51.7921 11.1509 51.6236C9.05244 51.5232 7.54434 49.5462 7.75145 42.8005L18.3801 36.9249L15.2781 44.7039C14.8057 45.888 15.65 46.8832 16.9744 47.0767L16.9746 47.0759C18.9529 47.3916 22.6953 46.4201 23.9587 44.6754L27.228 40.1611ZM24.6358 18.1727C26.9828 17.9817 29.3658 17.7791 31.5436 17.5909L21.6404 4.17933C21.1507 3.51607 19.7478 3.10926 18.5712 2.96436L24.6358 18.1727ZM31.473 29.3955C29.3369 29.188 27.0125 28.9678 24.7227 28.7648L18.5689 44.197C19.7437 44.0556 21.1476 43.6521 21.6291 42.9875L31.473 29.3955ZM41.3065 27.198C41.1622 27.2686 41.0154 27.3178 40.8629 27.346C40.1994 27.4687 35.7958 26.8829 34.1608 26.7735C31.2167 26.485 27.6656 26.1508 24.1597 25.8957C23.968 25.8417 23.7726 25.8294 23.5842 25.8545C16.4747 25.3547 13.3043 25.2102 12.3629 26.4712L5.45684 30.896L7.07844 26.8296C7.54083 25.7974 6.84851 24.8281 5.90266 24.7523C5.41023 24.7129 4.7651 24.426 4.7651 24.0073H4.75945V23.0837H4.7651C4.7651 22.6628 5.41121 22.3798 5.90617 22.3389L5.90578 22.334C6.84987 22.2556 7.47882 21.2737 7.12154 20.3752L5.45665 16.2L12.3627 20.6247C13.1508 21.6801 16.3484 21.5276 23.4908 21.0765C23.6749 21.1015 23.8656 21.091 24.0532 21.0404C28.5299 20.7487 33.0831 20.3497 36.3259 20.0653C38.2063 19.9005 39.6451 19.7744 40.2302 19.7332C40.6563 19.7094 40.9132 19.7239 41.2892 19.9263L47.2972 23.1586C47.9524 23.511 47.8791 23.98 47.2488 24.2887L41.3065 27.198ZM60.7101 59.0746C65.3343 59.0746 67.5479 64.6687 64.3537 67.8628L60.7101 71.5063L57.0665 67.8628C53.869 64.6652 56.0862 59.0746 60.7101 59.0746Z" fill="white"/>
</g>
<defs>
<clipPath id="clip0_293_1276">
<rect width="75.278" height="94" fill="white"/>
</clipPath>
</defs>
</svg>
