<svg width="25" height="24" viewBox="0 0 25 24" fill="none" xmlns="http://www.w3.org/2000/svg">
<path d="M21.621 21.8133C21.1456 22.1476 20.8021 22.3892 20.0235 22.3892C19.2449 22.3892 18.9014 22.1476 18.4259 21.8133C17.8987 21.4426 17.2425 20.9813 16.0186 20.9813C14.7947 20.9813 14.1385 21.4427 13.6113 21.8133C13.1359 22.1476 12.7924 22.3892 12.0139 22.3892C11.2354 22.3892 10.8919 22.1477 10.4165 21.8133C9.88925 21.4427 9.2331 20.9813 8.00928 20.9813C6.78536 20.9813 6.12926 21.4427 5.60204 21.8133C5.12659 22.1476 4.78307 22.3892 4.00461 22.3892C3.22615 22.3892 2.88269 22.1477 2.40724 21.8133C1.88002 21.4427 1.22392 20.9813 0 20.9813V22.3892C0.778413 22.3892 1.12198 22.6307 1.59742 22.9651C2.12464 23.3357 2.78079 23.7971 4.00461 23.7971C5.22853 23.7971 5.88463 23.3357 6.41185 22.9651C6.8873 22.6308 7.23082 22.3892 8.00928 22.3892C8.78774 22.3892 9.13121 22.6307 9.60665 22.9651C10.1339 23.3357 10.79 23.7971 12.0138 23.7971C13.2377 23.7971 13.8939 23.3358 14.4211 22.9651C14.8965 22.6308 15.24 22.3892 16.0186 22.3892C16.7971 22.3892 17.1406 22.6307 17.6161 22.9651C18.1433 23.3358 18.7995 23.7971 20.0234 23.7971C21.2474 23.7971 21.9035 23.3358 22.4307 22.9651C22.9063 22.6308 23.2498 22.3892 24.0283 22.3892V20.9813C22.8044 20.9813 22.1483 21.4426 21.621 21.8133Z" fill="#DA251C"/>
<path d="M23.3011 5.12682C22.5269 3.4666 21.2209 2.16182 19.5821 1.39359L19.914 0.481692L18.5909 0L18.2588 0.912365C14.4334 -0.100112 10.3856 1.96159 9.00642 5.75092L8.72223 6.53177L9.53918 6.68374C10.8594 6.92935 12.1216 7.38875 13.2907 8.04922L13.455 8.14206L13.6438 8.14023C13.6675 8.13999 13.6913 8.1399 13.715 8.1399C14.3364 8.1399 14.9504 8.21936 15.5435 8.37255L12.2631 17.3854C12.1801 17.3844 12.0972 17.3829 12.0141 17.3829C9.83895 17.3829 7.70271 17.739 5.66476 18.4415C4.38086 18.8841 3.15197 19.4591 1.99136 20.1572C2.52759 20.3803 2.92269 20.6577 3.21683 20.8645C3.28108 20.9097 3.33553 20.9479 3.38434 20.9813C4.26113 20.5037 5.17617 20.0992 6.12359 19.7726C8.01361 19.1211 9.99548 18.7908 12.0141 18.7908C14.0328 18.7908 16.0146 19.1211 17.9047 19.7725C18.8521 20.0991 19.7671 20.5036 20.6439 20.9812C20.6927 20.9479 20.7471 20.9098 20.8112 20.8647C21.1054 20.6578 21.5006 20.3803 22.037 20.1572C20.8764 19.459 19.6475 18.8841 18.3636 18.4415C16.8659 17.9252 15.3151 17.5968 13.7349 17.4586L16.8667 8.85396C17.4407 9.12797 17.9808 9.47754 18.4714 9.89737L18.6148 10.0201L18.8004 10.0546C20.1206 10.3002 21.3828 10.7596 22.5519 11.4201L23.2755 11.8288L23.5597 11.0479C24.267 9.10422 24.1752 7.00145 23.3011 5.12682ZM22.4658 9.78688C21.4411 9.29233 20.3605 8.92986 19.2412 8.70574C17.71 7.45193 15.7987 6.75631 13.8199 6.73256C12.8187 6.18488 11.7581 5.768 10.6552 5.48808C12.0948 2.7003 15.4253 1.34496 18.4498 2.44577C20.0401 3.02457 21.3097 4.18799 22.025 5.72177C22.6246 7.00783 22.7743 8.42517 22.4658 9.78688Z" fill="#DA251C"/>
<path d="M8.58315 12.7146L10.3247 11.7981L8.58315 10.8815L9.63308 9.2169L7.66656 9.29388L7.74353 7.32736L6.07894 8.37729L5.16235 6.63573L4.24577 8.37729L2.58118 7.32736L2.65815 9.29388L0.691631 9.2169L1.74156 10.8815L0 11.7981L1.74156 12.7147L0.691631 14.3793L2.65815 14.3023L2.58118 16.2688L4.24577 15.2188L5.16235 16.9604L6.07894 15.2189L7.74353 16.2688L7.66656 14.3022L9.63308 14.3792L8.58315 12.7146ZM5.16235 14.3793C3.7368 14.3793 2.58118 13.2236 2.58118 11.7981C2.58118 10.3726 3.7368 9.2169 5.16235 9.2169C6.5879 9.2169 7.74353 10.3726 7.74353 11.7981C7.74353 13.2236 6.5879 14.3793 5.16235 14.3793Z" fill="#DA251C"/>
</svg>
