<svg width="72" height="99" viewBox="0 0 72 99" fill="none" xmlns="http://www.w3.org/2000/svg">
<path d="M0 0H72V99L36 66.8571L0 99V0Z" fill="#2CB3DB"/>
<g clip-path="url(#clip0_606_2174)">
<path d="M36.0001 52.8361C40.1081 52.8361 43.9041 51.4321 46.9201 49.0401L46.2961 48.8841C45.6721 48.7281 45.1521 48.3121 44.8401 47.7921C43.1241 48.9881 41.2001 49.8201 39.0681 50.2881C39.2761 50.0801 39.4841 49.8721 39.4841 49.7681C39.4841 49.7161 39.6401 49.6641 39.7441 49.6121C40.0041 49.4561 40.2641 49.3001 40.3681 49.1441C40.5241 48.8841 41.0961 48.3121 41.3041 48.2081C41.6161 48.0521 43.4361 46.3881 43.5401 46.1281C43.8521 45.4521 44.2161 44.6721 44.4761 44.5161C44.8921 44.2041 44.5281 43.5801 44.3721 43.3721L44.3201 43.3201C44.1641 43.0601 43.1241 42.9561 42.9681 42.9561C42.7601 42.9561 41.8761 42.4881 41.8241 42.3321C41.8241 42.0201 40.9401 41.1881 40.7321 41.1881C40.6281 41.1881 40.1081 41.0841 39.7961 40.7201C39.4321 40.3041 38.2361 40.0441 37.8721 40.0441C37.5601 40.0441 37.0401 39.9921 36.7281 39.8361C36.5201 39.6281 36.0001 39.8361 35.4801 40.0441C35.3761 40.0961 35.2721 40.1481 35.2201 40.1481C35.0641 40.2001 34.0241 39.9921 33.7641 39.8881C33.7121 39.8361 33.6601 39.4201 33.6601 39.2121C33.6601 38.9521 33.6081 38.7961 33.5561 38.6921C33.5041 38.5881 33.2441 38.4841 32.7761 38.3801C32.6721 38.3281 32.5161 38.3281 32.4121 38.2761C32.4121 38.2241 32.4641 38.0681 32.5161 38.0161C32.6721 37.6521 32.7761 37.3921 32.6721 37.1841C32.6201 37.1321 32.5681 37.0801 32.5161 37.0801C32.3081 37.0281 31.9441 37.2361 31.6321 37.4961C31.4761 37.6001 31.2681 37.7561 31.2161 37.7561C31.0081 37.7561 30.5921 37.6001 30.1241 37.2881C29.8641 37.1321 30.1761 36.1961 30.3321 35.7801C30.3841 35.5721 30.4361 35.4161 30.4881 35.3121C30.4881 35.2081 31.0081 35.0521 31.7361 35.0521C31.9441 35.0521 32.2041 35.0001 32.5161 34.9481C32.7761 34.8961 32.9841 34.8441 33.1921 34.8441C33.2961 34.8441 33.5041 35.1041 33.6081 35.3121C33.8161 35.5721 33.9721 35.7801 34.1801 35.7801C34.4921 35.7281 34.4401 35.3641 34.4401 35.0521C34.4401 34.9481 34.4401 34.8441 34.4401 34.8441C34.4401 34.6881 34.8561 34.0121 35.1681 33.8561C35.5321 33.6481 36.0521 32.9201 35.8961 32.5561C35.8961 32.4001 36.5721 31.9841 36.7801 31.8281C36.8841 31.7761 36.9881 31.7241 37.0401 31.6721C37.0921 31.6201 37.1961 31.5681 37.2481 31.5161C37.4561 31.4121 37.7681 31.2561 37.7681 30.8401C37.7681 30.6321 38.4961 30.5281 38.9121 30.4241C39.0161 30.4241 39.1201 30.3721 39.1721 30.3721C39.4321 30.3201 39.5881 30.2681 39.6921 30.1121C39.7961 29.9561 39.6921 29.8001 39.6401 29.5921C39.5881 29.5401 39.5881 29.4881 39.5361 29.4361C39.3801 29.0721 39.4841 28.8641 39.7961 28.6041C39.9521 28.5001 40.2121 28.5001 40.4721 28.4481C40.7841 28.3961 41.0961 28.3961 41.4081 28.2401C41.6161 28.1361 41.7201 28.0321 41.7721 27.9281C41.8241 27.7201 41.7201 27.5641 41.6161 27.4601C41.5641 27.4081 41.5121 27.3561 41.5121 27.3041C41.3561 26.9921 41.0961 26.7841 40.8881 26.6281C40.7841 26.5241 40.6801 26.1081 40.6281 25.8481C40.5761 25.6921 40.5761 25.5361 40.5241 25.4321C40.4721 25.3281 40.4201 25.2761 40.3161 25.2241C40.0561 25.1201 39.6921 25.2761 39.4841 25.3801C39.4841 25.3281 39.4321 25.2241 39.4321 25.1721C39.3801 25.0161 39.3801 24.8601 39.2761 24.7561C39.2241 24.7041 39.0681 24.6001 38.9641 24.4441C38.7561 24.2361 38.4441 23.9761 38.2881 23.8201C38.1841 23.7161 38.0801 23.7161 37.9761 23.7161C37.7161 23.7681 37.5081 24.0801 37.3001 24.3921C37.2481 24.4441 37.2481 24.4441 37.2481 24.4961C36.9361 24.9641 36.8841 25.3801 37.0921 25.5361C37.0921 25.5361 37.1441 25.6401 37.0401 25.7961C36.9361 26.0561 36.7801 26.2121 36.6761 26.2121C36.3641 26.1601 36.3121 26.5761 36.2081 26.9921C36.2081 27.1481 36.1561 27.3561 36.1041 27.4601C36.0521 27.4081 35.9481 27.1481 35.9481 26.4721V26.3681C35.9481 26.2641 35.8961 26.2121 35.8441 26.1601C35.7401 26.0561 35.6361 26.1081 35.5321 26.1081C35.3761 26.1081 35.3241 26.1081 35.2721 26.0561C35.1161 25.7961 34.2841 25.4841 33.9721 25.3281C33.9721 24.9121 33.9721 24.3921 33.9721 24.3401C34.0761 24.1841 35.3761 23.3001 35.6361 23.2481C36.0521 23.0921 37.0921 22.4161 37.2481 22.2601C37.4561 22.1561 37.4561 22.0001 37.4561 21.8961C37.4041 21.5841 36.8321 21.3241 36.5721 21.2201C36.2601 20.9601 35.9481 20.9601 35.5841 20.9601C35.3761 20.9601 35.1681 20.9601 34.9601 20.9081C34.0761 20.7521 33.3481 20.7521 32.7241 20.8041C32.2561 20.8561 31.5281 20.8041 31.0601 20.7001C30.8521 20.6481 30.6441 20.5961 30.4881 20.5961C30.4361 20.5961 30.2801 20.5961 30.1761 20.5961C31.9961 19.8681 33.9721 19.4521 36.0521 19.4521C38.1321 19.4521 40.1601 19.8681 41.9801 20.6481C42.0321 20.8561 42.0841 21.0641 42.1881 21.2721C42.3961 21.7401 42.7081 22.5201 42.7081 23.0921C42.7081 23.6641 42.7601 24.2881 42.7081 24.4441C42.6561 24.6001 43.8521 26.0041 44.1121 26.0041C44.3721 26.0561 44.5801 25.8481 44.7361 25.5881C44.8921 25.3281 45.1521 25.0161 45.6201 24.6521C45.9321 24.4441 46.7121 24.3401 47.2841 24.2881C47.8041 24.8601 48.3241 25.4841 48.7921 26.1081C48.6881 26.2121 48.5321 26.3161 48.4801 26.3681C48.2721 26.5761 47.6481 27.2001 47.7001 27.7201C47.7521 28.1881 48.2721 28.8121 48.9481 29.1241C49.5721 29.4361 49.6761 30.1121 49.6761 30.2161C49.6761 30.3201 50.5601 30.8921 50.5601 30.8921C50.5601 30.8921 50.1961 31.6201 49.9881 31.6201C49.8321 31.6201 49.6761 32.3481 49.6761 32.6601C49.6761 32.9721 50.0401 33.4921 50.4561 33.7521C50.8721 34.0641 51.4961 33.2321 51.4961 33.2321L51.6001 33.1801C51.6521 33.6481 51.7041 34.1161 51.7041 34.6361C51.1841 34.7401 50.5081 35.0001 50.3001 35.1041C50.0401 35.3121 49.4681 37.1321 49.2081 37.3401C48.9481 37.4961 48.4281 39.9921 48.3761 40.2521C48.3761 40.4081 48.7921 41.3441 49.2601 42.0201C49.4161 42.2801 49.4681 42.5921 49.4161 42.9041L51.9121 43.1641C53.2121 40.7201 53.9401 37.9121 53.9401 35.0001C53.9401 25.1721 45.9321 17.1641 36.1041 17.1641C26.2761 17.1641 18.2681 25.1721 18.2681 35.0001C18.2681 44.8281 26.1721 52.8361 36.0001 52.8361ZM24.6121 24.4441C24.7161 24.4961 24.8721 24.6001 25.0801 24.7561C25.1841 24.8601 25.1841 25.5881 25.1841 26.3681V26.4201V26.4721C25.1841 26.4721 25.8601 28.0841 25.2361 29.3321C24.5601 30.6841 24.7161 32.8681 25.0281 33.3361C25.3401 33.7521 26.7961 35.6761 27.0041 35.8841C27.1601 36.0401 27.6801 37.4441 27.7321 37.6001C27.7841 37.7561 28.7201 38.9521 29.7601 38.9521C30.3321 38.9521 31.0601 39.2641 31.4761 39.4721C31.6841 39.5761 31.8401 39.6801 31.9961 39.6801C32.0481 39.6801 32.1001 39.7841 32.1521 39.8881C32.3081 40.1481 32.5161 40.5121 33.0881 40.8241C33.2441 40.9281 33.4001 40.9801 33.5561 41.0841C34.0761 41.3961 34.8041 41.8121 34.8561 41.9161C34.8561 41.9681 34.7521 42.0721 34.6481 42.1761C34.3361 42.5401 33.7641 43.1641 33.9201 43.9961C34.1281 45.1401 35.7401 46.5441 36.3121 46.9081C36.6761 47.1161 36.4681 49.5081 36.3121 49.9241C36.2601 50.0801 36.2081 50.3401 36.2081 50.6001C36.1561 50.6001 36.1041 50.6001 36.0521 50.6001C27.4721 50.6001 20.5041 43.6321 20.5041 35.0521C20.4521 30.9441 22.0121 27.2001 24.6121 24.4441Z" fill="#ABE0F0"/>
<path d="M57.8396 29.0719C57.9436 29.5399 58.4116 29.8519 58.8276 29.8519C58.9316 29.8519 59.0356 29.8519 59.0876 29.7999C59.6596 29.6439 59.9716 29.0719 59.8156 28.4999C59.5556 27.4599 59.1916 26.4199 58.7756 25.4319C58.5676 24.9119 57.9436 24.6519 57.4236 24.8599C56.9036 25.0679 56.6436 25.6919 56.8516 26.2119C57.2156 27.1999 57.5796 28.1359 57.8396 29.0719Z" fill="#ABE0F0"/>
<path d="M13.7438 26.9399C13.8998 26.9919 14.0038 27.0439 14.1598 27.0439C14.5758 27.0439 14.9398 26.7839 15.1478 26.4199C15.5118 25.5359 15.9798 24.5999 16.4478 23.7679C16.7598 23.2479 16.5518 22.6239 16.0838 22.3119C15.5638 21.9999 14.9398 22.2079 14.6278 22.6759C14.1078 23.6119 13.5878 24.5999 13.2238 25.5879C12.9118 26.1079 13.1718 26.7319 13.7438 26.9399Z" fill="#ABE0F0"/>
<path d="M53.8876 21.1676C54.0956 21.4276 54.4076 21.5836 54.7196 21.5836C54.9276 21.5836 55.1876 21.5316 55.3436 21.3756C55.8116 21.0116 55.8636 20.3876 55.5516 19.9196C54.8756 19.0876 54.1996 18.2556 53.4196 17.4756C53.0036 17.0596 52.3276 17.0596 51.9116 17.4756C51.4956 17.8916 51.4956 18.5676 51.9116 18.9836C52.6396 19.6596 53.2636 20.3876 53.8876 21.1676Z" fill="#ABE0F0"/>
<path d="M19.2558 19.3479C19.5158 19.3479 19.7758 19.2439 19.9838 19.0359C20.6598 18.3599 21.4398 17.6839 22.2198 17.0599C22.6878 16.6959 22.7398 16.0719 22.4278 15.6039C22.0638 15.1359 21.4398 15.0839 20.9718 15.3959C20.1398 16.0719 19.3078 16.7479 18.5278 17.5279C18.1118 17.9439 18.1118 18.6199 18.5278 19.0359C18.6838 19.2439 18.9958 19.3479 19.2558 19.3479Z" fill="#ABE0F0"/>
<path d="M36 12.3798C36.988 12.3798 37.924 12.4318 38.912 12.5878C38.964 12.5878 39.016 12.5878 39.068 12.5878C39.588 12.5878 40.056 12.2238 40.108 11.6518C40.108 11.0798 39.744 10.5598 39.172 10.5078C38.132 10.3518 37.092 10.2998 36 10.2998H35.948C35.376 10.2998 34.96 10.7678 34.96 11.3398C34.96 11.9118 35.428 12.3798 36 12.3798Z" fill="#ABE0F0"/>
<path d="M26.8999 14.1998C27.0559 14.1998 27.1599 14.1478 27.3159 14.0958C28.1999 13.7318 29.1359 13.4198 30.0719 13.1598C30.6439 13.0038 30.9559 12.4318 30.7999 11.8598C30.6439 11.2878 30.0719 10.9758 29.4999 11.1318C28.4599 11.3918 27.4199 11.7558 26.4319 12.1718C25.9119 12.3798 25.6519 13.0038 25.8599 13.5238C26.0679 13.9918 26.4839 14.1998 26.8999 14.1998Z" fill="#ABE0F0"/>
<path d="M44.58 14.0959C45.464 14.4599 46.4 14.9279 47.232 15.3959C47.388 15.4999 47.596 15.5519 47.752 15.5519C48.116 15.5519 48.48 15.3439 48.688 15.0319C49 14.5119 48.792 13.8879 48.324 13.5759C47.388 13.0559 46.4 12.5359 45.412 12.1719C44.892 11.9639 44.268 12.2239 44.06 12.7439C43.8 13.2639 44.06 13.8879 44.58 14.0959Z" fill="#ABE0F0"/>
<path d="M44.6839 55.9038C43.7999 56.2678 42.8639 56.5798 41.8759 56.8398C41.3039 56.9958 40.9919 57.5678 41.1479 58.1398C41.2519 58.6078 41.7199 58.9198 42.1359 58.9198C42.2399 58.9198 42.3439 58.9198 42.3959 58.8678C43.4359 58.6078 44.4759 58.2438 45.4639 57.8278C45.9839 57.6198 46.2439 56.9958 46.0359 56.4758C45.8279 55.9038 45.2039 55.6438 44.6839 55.9038Z" fill="#ABE0F0"/>
<path d="M36.0001 57.6197C35.0121 57.6197 34.0241 57.5677 33.0881 57.4117C32.5161 57.3597 31.9961 57.7237 31.8921 58.2957C31.8401 58.8677 32.2041 59.3877 32.7761 59.4917C33.8161 59.6477 34.9081 59.6997 35.9481 59.6997C36.5201 59.6997 36.9881 59.2317 36.9881 58.6597C37.0401 58.0877 36.5721 57.6197 36.0001 57.6197Z" fill="#ABE0F0"/>
<path d="M59.6602 33.9077C59.0882 33.9077 58.6202 34.4277 58.6202 34.9997C58.6202 35.9877 58.5682 36.9757 58.4122 37.9637C58.3602 38.5357 58.7242 39.0557 59.2962 39.1597C59.3482 39.1597 59.4002 39.1597 59.4522 39.1597C59.9722 39.1597 60.4402 38.7957 60.4922 38.2237C60.6482 37.1837 60.7002 36.0917 60.7002 34.9997V34.8957C60.7002 34.3237 60.2322 33.9077 59.6602 33.9077Z" fill="#ABE0F0"/>
<path d="M18.1116 48.7797C17.7476 48.3117 17.1236 48.2597 16.6556 48.5717C16.1876 48.9357 16.1356 49.5597 16.4476 50.0277C17.1236 50.8597 17.7996 51.6917 18.5796 52.4717C18.7876 52.6797 19.0476 52.7837 19.3076 52.7837C19.5676 52.7837 19.8276 52.6797 20.0356 52.4717C20.4516 52.0557 20.4516 51.3797 20.0356 50.9637C19.3596 50.2877 18.6836 49.5597 18.1116 48.7797Z" fill="#ABE0F0"/>
<path d="M14.1598 40.8759C14.0038 40.3039 13.4318 39.9919 12.8598 40.1479C12.2878 40.3039 11.9758 40.8759 12.1318 41.4479C12.3918 42.4879 12.7558 43.5279 13.1718 44.5159C13.3798 44.8799 13.7438 45.1399 14.1598 45.1399C14.3158 45.1399 14.4198 45.0879 14.5758 45.0359C15.0958 44.8279 15.3558 44.2039 15.1478 43.6839C14.7318 42.7999 14.4198 41.8119 14.1598 40.8759Z" fill="#ABE0F0"/>
<path d="M27.3677 55.9039C26.4837 55.5399 25.5477 55.0719 24.7157 54.6039C24.1957 54.2919 23.5717 54.4999 23.2597 54.9679C22.9477 55.4879 23.1557 56.1119 23.6237 56.4239C24.5597 56.9439 25.5477 57.4639 26.5357 57.8279C26.6917 57.8799 26.7957 57.9319 26.9517 57.9319C27.3677 57.9319 27.7317 57.6719 27.9397 57.3079C28.1477 56.7359 27.8877 56.1119 27.3677 55.9039Z" fill="#ABE0F0"/>
<path d="M13.3798 34.9996C13.3798 34.0116 13.4318 33.0236 13.5878 32.0876C13.6398 31.5156 13.2758 30.9956 12.7038 30.8916C12.0798 30.8396 11.5598 31.2556 11.5078 31.8276C11.3518 32.8676 11.2998 33.9596 11.2998 34.9476V35.0516C11.2998 35.6236 11.7678 36.0916 12.3398 36.0916C12.9118 36.0916 13.3798 35.5716 13.3798 34.9996Z" fill="#ABE0F0"/>
<path d="M59.0878 42.0718C58.2038 42.1238 57.3198 42.5398 56.7478 43.2158L54.7198 45.6078L48.7398 44.9318C48.3758 44.8798 48.0638 45.0358 47.8038 45.2958L46.7118 46.5438C46.6078 46.6478 46.6598 46.8038 46.8158 46.8558L52.4838 48.3118L50.0398 51.7438L47.7518 51.3798C47.4918 51.3278 47.2318 51.4318 47.0758 51.6398L46.7638 52.0038C46.7118 52.1078 46.7118 52.2118 46.8158 52.2638L48.7918 53.5118C48.6358 53.8758 48.7398 54.2918 49.0518 54.5518C49.3638 54.8118 49.7798 54.8638 50.1438 54.6558L51.7038 56.4238C51.7558 56.5278 51.9118 56.5278 52.0158 56.4238L52.3278 56.0598C52.4838 55.8518 52.5358 55.5918 52.4838 55.3318L51.7038 53.1998L54.7198 50.2358L57.0598 55.5918C57.1118 55.6958 57.2678 55.7478 57.3718 55.6438L58.4638 54.3958C58.6718 54.1358 58.7758 53.7718 58.6718 53.4598L57.0598 47.6358L59.0878 45.2438C59.6598 44.5678 59.9718 43.6318 59.8678 42.7478C59.8158 42.3318 59.4518 42.0718 59.0878 42.0718Z" fill="#ABE0F0"/>
</g>
<defs>
<clipPath id="clip0_606_2174">
<rect width="52" height="52" fill="white" transform="translate(10 9)"/>
</clipPath>
</defs>
</svg>
