<svg width="72" height="99" viewBox="0 0 72 99" fill="none" xmlns="http://www.w3.org/2000/svg">
<path d="M0 0H72V99L36 66.8571L0 99V0Z" fill="#2CB3DB"/>
<g clip-path="url(#clip0_606_2173)">
<path fill-rule="evenodd" clip-rule="evenodd" d="M27.0698 50.4483L26.0764 58.1595C26.0431 58.418 26.2278 58.6562 26.4826 58.6894C26.743 58.7227 26.9794 58.5399 27.0126 58.2813L28.4252 47.3311C28.7983 46.5777 29.2156 45.8169 29.6772 45.0598L28.8093 54.2704C28.573 54.6619 28.4363 55.118 28.4363 55.6073V58.2184C28.4363 58.4787 28.6487 58.6911 28.9091 58.6911C29.1694 58.6911 29.3818 58.4787 29.3818 58.2184V55.6073C29.3818 54.6988 30.1186 53.9638 31.0271 53.9638H40.9728C41.8814 53.9638 42.6181 54.6988 42.6181 55.6073V58.2184C42.6181 58.4787 42.8305 58.6911 43.0909 58.6911C43.3512 58.6911 43.5636 58.4787 43.5636 58.2184V55.6073C43.5636 55.118 43.427 54.6619 43.1906 54.2704L42.3209 45.056C42.7844 45.8131 43.1999 46.5757 43.5784 47.3273L44.9874 58.2776C45.0206 58.5361 45.257 58.7189 45.5174 58.6857C45.7722 58.6524 45.9568 58.4161 45.9236 58.1557L44.9301 50.4446C46.5662 54.7933 46.8727 58.2573 46.8727 58.2573C46.8968 58.5177 47.1276 58.7097 47.3879 58.6857C47.6483 58.6617 47.8422 58.4327 47.8182 58.1724C47.8182 58.1724 46.5791 44.4817 36.2789 37.0306C36.1127 36.9106 35.8874 36.9106 35.7212 37.0306C25.421 44.4855 24.182 58.1757 24.182 58.1757C24.158 58.4361 24.3518 58.6651 24.6122 58.689C24.8726 58.713 25.1034 58.521 25.1274 58.2606C25.1274 58.2606 25.4339 54.7964 27.07 50.4479L27.0698 50.4483ZM53.4911 16.619H52.5456C52.3572 16.619 52.1855 16.7317 52.1098 16.9053L50.6916 20.2143C50.6695 20.2734 50.6547 20.3362 50.6547 20.4008V22.5687L49.3732 23.8484C49.1885 24.0331 49.1885 24.3322 49.3732 24.5169C49.5578 24.7015 49.8606 24.7015 50.0453 24.5169L50.6547 23.9056V25.6008C50.6547 25.8612 50.8671 26.0735 51.1275 26.0735C51.3878 26.0735 51.6002 25.8612 51.6002 25.6008V20.4968L52.8577 17.5644H53.4911V20.8735C53.4911 21.1339 53.7035 21.3462 53.9638 21.3462C54.2242 21.3462 54.4366 21.1339 54.4366 20.8735V15.0882L55.8547 16.7908V25.601C55.8547 25.8614 56.0671 26.0738 56.3275 26.0738C56.5878 26.0738 56.8002 25.8614 56.8002 25.601V23.4332L57.7456 24.3786V35.5284H42.1735C40.4673 33.8591 38.5007 32.2802 36.2498 30.8731C36.0984 30.7771 35.9008 30.7771 35.7494 30.8731C33.5002 32.2802 31.5336 33.859 29.8275 35.5284H14.2554V24.3786L15.2008 23.4332V25.601C15.2008 25.8614 15.4132 26.0738 15.6736 26.0738C15.9339 26.0738 16.1463 25.8614 16.1463 25.601V16.7908L17.5645 15.0882V20.8735C17.5645 21.1339 17.7768 21.3462 18.0372 21.3462C18.2976 21.3462 18.5099 21.1339 18.5099 20.8735V17.5644H19.1433L20.4008 20.4968V25.6008C20.4008 25.8612 20.6132 26.0735 20.8736 26.0735C21.1339 26.0735 21.3463 25.8612 21.3463 25.6008V23.9056L21.9557 24.5169C22.1404 24.7015 22.4432 24.7015 22.6279 24.5169C22.8125 24.3322 22.8125 24.0331 22.6279 23.8484L21.3463 22.5687V20.4008C21.3463 20.3362 21.3316 20.2734 21.3094 20.2143L19.8912 16.9053C19.8155 16.7317 19.6438 16.619 19.4554 16.619H18.51V13.7827C18.51 13.5832 18.3863 13.406 18.1979 13.3376C18.0096 13.2693 17.8009 13.3266 17.6735 13.4798L15.3098 16.3162C15.2378 16.4011 15.2009 16.5082 15.2009 16.619V22.096L13.4466 23.8484C13.3617 23.9371 13.31 24.0571 13.31 24.1827V36.0009C13.31 36.2612 13.5223 36.4736 13.7827 36.4736H28.8953C27.6655 37.7681 26.5797 39.1068 25.6195 40.4548C25.4681 40.6672 25.5198 40.9627 25.7321 41.1141C25.9445 41.2655 26.2381 41.2156 26.3895 41.0033C26.5926 40.717 26.805 40.4327 27.0173 40.1483V42.7114C22.1071 50.3506 21.3522 58.1729 21.3522 58.1729C21.3245 58.4332 21.5128 58.6641 21.7732 58.688C22.0335 58.7139 22.2644 58.5237 22.2939 58.2633C22.2939 58.2633 23.7601 43.0897 36.003 34.6804C48.2457 43.0897 49.7178 58.2633 49.7178 58.2633C49.7418 58.5237 49.9726 58.7139 50.233 58.688C50.4933 58.6622 50.6817 58.4314 50.6577 58.1729C50.6577 58.1729 49.8969 50.3506 44.985 42.7095V40.1464C45.1973 40.4308 45.4097 40.7151 45.6128 41.0014C45.7642 41.2137 46.0578 41.2636 46.2702 41.1122C46.4825 40.9608 46.5342 40.6653 46.3828 40.453C45.4226 39.1068 44.3349 37.768 43.1069 36.4735H58.2196C58.4799 36.4735 58.6923 36.2612 58.6923 36.0008V24.1826C58.6923 24.0571 58.6406 23.937 58.5556 23.8484L56.8014 22.096V16.619C56.8014 16.5082 56.7645 16.4011 56.6924 16.3161L54.3288 13.4798C54.2014 13.3265 53.9927 13.2693 53.8044 13.3376C53.616 13.4059 53.4923 13.5832 53.4923 13.7826L53.4911 16.619ZM13.7763 56.8008C13.7763 56.8008 14.5039 56.8064 15.1889 56.426C15.4789 56.5959 15.9663 56.8008 16.6182 56.8008C16.8786 56.8008 17.0909 56.5885 17.0909 56.3281C17.0909 56.0678 16.8786 55.8554 16.6182 55.8554C15.9183 55.8554 15.5213 55.5082 15.5213 55.5082C15.3514 55.3513 15.0966 55.3402 14.9119 55.4805C14.4152 55.8609 13.7873 55.8554 13.7873 55.8554C13.527 55.8535 13.3146 56.0622 13.3091 56.3244C13.3091 56.5848 13.5178 56.799 13.7763 56.8008ZM58.2127 55.8554C58.2127 55.8554 57.5848 55.8609 57.0881 55.4805C56.9034 55.3402 56.6486 55.3513 56.4787 55.5082C56.4787 55.5082 56.0817 55.8554 55.3818 55.8554C55.1215 55.8554 54.9091 56.0678 54.9091 56.3281C54.9091 56.5885 55.1215 56.8009 55.3818 56.8009C56.0392 56.8009 56.5212 56.5959 56.8092 56.426C57.4943 56.8082 58.2219 56.8009 58.2219 56.8009C58.4822 56.799 58.6946 56.5848 58.6891 56.3244C58.6909 56.0622 58.473 55.8535 58.2127 55.8554ZM32.1479 41.631C31.6604 42.2016 31.2117 42.787 30.787 43.3779L29.8507 53.2995C30.1997 53.1204 30.6004 53.0188 31.027 53.0188H31.5478L32.1479 41.631ZM39.8519 41.6329L40.4539 53.019H40.9747C41.3994 53.019 41.8019 53.1205 42.1509 53.3015L41.2147 43.3799C40.79 42.789 40.3394 42.2055 39.8538 41.633L39.8519 41.6329ZM37.4421 39.1769L37.7671 53.0188H39.5066L38.8455 40.5209L38.8418 40.5172C38.6147 40.2827 38.382 40.05 38.1457 39.8247C37.9241 39.6105 37.6969 39.4019 37.4661 39.1969L37.4421 39.1769ZM36.4782 38.3718C36.3544 38.2776 36.2363 38.1835 36.1144 38.0911C36.0867 38.069 36.0147 38.0062 36.0017 38.0062C35.9925 38.0062 35.9168 38.0708 35.8891 38.0911C35.7654 38.1835 35.6472 38.2776 35.5253 38.3718V38.3737L35.1782 53.0188H36.8235L36.4782 38.3718ZM34.5355 39.1972C34.3047 39.4022 34.0776 39.6109 33.8541 39.8232C33.6178 40.0504 33.387 40.2812 33.1598 40.5176L33.1543 40.5213L32.4914 53.0192H34.2309L34.5577 39.1773L34.5355 39.1972ZM16.1455 51.1279H13.7819C13.5215 51.1279 13.3091 51.3403 13.3091 51.6007C13.3091 51.861 13.5215 52.0734 13.7819 52.0734H16.1455C16.4059 52.0734 16.6182 51.861 16.6182 51.6007C16.6182 51.3403 16.4059 51.1279 16.1455 51.1279ZM55.8546 52.0734H58.2182C58.4786 52.0734 58.691 51.861 58.691 51.6007C58.691 51.3403 58.4786 51.1279 58.2182 51.1279H55.8546C55.5942 51.1279 55.3819 51.3403 55.3819 51.6007C55.3819 51.861 55.5942 52.0734 55.8546 52.0734ZM19.9273 51.1279H18.5091C18.2488 51.1279 18.0364 51.3403 18.0364 51.6007C18.0364 51.861 18.2488 52.0734 18.5091 52.0734H19.9273C20.1877 52.0734 20.4 51.861 20.4 51.6007C20.4 51.3403 20.1877 51.1279 19.9273 51.1279ZM52.0728 52.0734H53.491C53.7513 52.0734 53.9637 51.861 53.9637 51.6007C53.9637 51.3403 53.7513 51.1279 53.491 51.1279H52.0728C51.8124 51.1279 51.6 51.3403 51.6 51.6007C51.6 51.861 51.8124 52.0734 52.0728 52.0734ZM16.1398 48.2916C16.1398 48.2916 16.8674 48.2971 17.5525 47.9167C17.8369 48.0884 18.3207 48.2916 18.9817 48.2916C18.9762 48.2916 19.7093 48.2971 20.3944 47.913C20.688 48.0829 21.1792 48.2916 21.8181 48.2916C22.0785 48.2916 22.2908 48.0792 22.2908 47.8188C22.2908 47.5585 22.0785 47.3461 21.8181 47.3461C21.1367 47.3461 20.712 46.9897 20.712 46.9897C20.5421 46.842 20.291 46.8346 20.1119 46.9713C19.6151 47.3517 18.9873 47.3461 18.9873 47.3461H18.9818C18.2782 47.3461 17.8904 47.0027 17.8904 47.0027C17.7187 46.8438 17.4602 46.8291 17.2755 46.9713C16.7788 47.3517 16.1509 47.3461 16.1509 47.3461C15.8906 47.3443 15.6782 47.5529 15.6727 47.8152C15.6727 48.0755 15.8813 48.2897 16.1398 48.2916ZM55.8489 47.3461C55.8489 47.3461 55.2211 47.3517 54.7243 46.9713C54.5397 46.8291 54.2793 46.842 54.1094 47.0027C54.1094 47.0027 53.7216 47.3461 53.0181 47.3461H53.0125C53.0125 47.3461 52.3847 47.3517 51.888 46.9713C51.7089 46.8346 51.4577 46.842 51.2878 46.9897C51.2878 46.9897 50.8631 47.3461 50.1818 47.3461C49.9214 47.3461 49.709 47.5585 49.709 47.8188C49.709 48.0792 49.9214 48.2916 50.1818 48.2916C50.8207 48.2916 51.3119 48.0829 51.6055 47.913C52.2906 48.2971 53.0237 48.2916 53.0237 48.2916C53.681 48.2916 54.163 48.0884 54.4511 47.9167C55.1324 48.2971 55.86 48.2916 55.86 48.2916C56.1204 48.2897 56.3327 48.0755 56.3272 47.8152C56.3272 47.5529 56.1093 47.3443 55.8489 47.3461ZM51.1216 44.5098C51.1216 44.5098 50.4938 44.5153 49.9971 44.1349C49.8087 43.989 49.5391 44.0075 49.3729 44.1774C49.3729 44.1774 49.0128 44.5079 48.2908 44.5079C48.0304 44.5079 47.8181 44.7203 47.8181 44.9806C47.8181 45.241 48.0304 45.4534 48.2908 45.4534C48.9667 45.4534 49.4449 45.2539 49.7275 45.0822C50.4089 45.4589 51.1309 45.4534 51.1309 45.4534C51.3913 45.4515 51.6036 45.2373 51.5981 44.9769C51.5999 44.7166 51.382 44.5079 51.1216 44.5098ZM20.8671 45.4552C20.8671 45.4552 21.5909 45.4608 22.2705 45.084C22.5549 45.2558 23.0313 45.4552 23.7072 45.4552C23.9676 45.4552 24.1799 45.2428 24.1799 44.9825C24.1799 44.7221 23.9676 44.5098 23.7072 44.5098C22.9834 44.5098 22.6251 44.1792 22.6251 44.1792C22.4589 44.0093 22.1893 43.9909 22.0009 44.1367C21.506 44.5153 20.8782 44.5098 20.8782 44.5098C20.6178 44.5079 20.4055 44.7166 20.4 44.9788C20.4 45.2392 20.6086 45.4534 20.8671 45.4552ZM55.8546 43.0916H56.8C57.0604 43.0916 57.2728 42.8792 57.2728 42.6188C57.2728 42.3585 57.0604 42.1461 56.8 42.1461H55.8546C55.5942 42.1461 55.3819 42.3585 55.3819 42.6188C55.3819 42.8792 55.5942 43.0916 55.8546 43.0916ZM20.4 42.1461H18.0364C17.776 42.1461 17.5637 42.3585 17.5637 42.6188C17.5637 42.8792 17.776 43.0916 18.0364 43.0916H20.4C20.6604 43.0916 20.8728 42.8792 20.8728 42.6188C20.8728 42.3585 20.6604 42.1461 20.4 42.1461ZM51.6 43.0916H53.9637C54.2241 43.0916 54.4364 42.8792 54.4364 42.6188C54.4364 42.3585 54.2241 42.1461 53.9637 42.1461H51.6C51.3397 42.1461 51.1273 42.3585 51.1273 42.6188C51.1273 42.8792 51.3397 43.0916 51.6 43.0916ZM16.1455 42.1461H15.2C14.9397 42.1461 14.7273 42.3585 14.7273 42.6188C14.7273 42.8792 14.9397 43.0916 15.2 43.0916H16.1455C16.4059 43.0916 16.6182 42.8792 16.6182 42.6188C16.6182 42.3585 16.4059 42.1461 16.1455 42.1461ZM29.8546 36.8388C29.1824 37.5313 28.5546 38.2367 27.9637 38.9513V41.3168L27.9729 41.3057C28.2702 40.8866 28.5823 40.4729 28.9036 40.0685C29.2065 39.6826 29.5185 39.3059 29.8399 38.9347L29.8546 38.9199L29.8546 36.8388ZM42.1455 36.8388V38.9199L42.1603 38.9347C42.4816 39.3058 42.7936 39.6825 43.0965 40.0685C43.4178 40.4729 43.7299 40.8865 44.0272 41.3057L44.0364 41.3149V38.9494C43.4455 38.2367 42.8177 37.5294 42.1455 36.8388ZM13.7762 40.7277C13.7762 40.7277 14.5038 40.7333 15.1888 40.351C15.4843 40.5209 15.9662 40.7277 16.6181 40.7277C16.6125 40.7277 17.3364 40.7333 18.0178 40.3584C18.2966 40.5302 18.7693 40.7277 19.4545 40.7277C19.7148 40.7277 19.9272 40.5154 19.9272 40.255C19.9272 39.9947 19.7148 39.7823 19.4545 39.7823C18.7269 39.7823 18.3816 39.4573 18.3816 39.4573C18.2117 39.2819 17.9421 39.2597 17.7482 39.4074C17.2515 39.7878 16.6237 39.7823 16.6237 39.7823H16.6181C15.9238 39.7823 15.5176 39.4333 15.5176 39.4333C15.3514 39.2782 15.0965 39.2671 14.9119 39.4074C14.4152 39.7878 13.7873 39.7823 13.7873 39.7823C13.527 39.7804 13.3146 39.9891 13.3091 40.2513C13.3091 40.5117 13.5177 40.7259 13.7762 40.7277ZM58.2126 39.7823C58.2126 39.7823 57.5847 39.7878 57.088 39.4074C56.9089 39.2671 56.6485 39.2782 56.4823 39.4333C56.4823 39.4333 56.0761 39.7823 55.3818 39.7823H55.3762C55.3762 39.7823 54.7484 39.7878 54.2517 39.4074C54.0578 39.2597 53.7882 39.28 53.6183 39.4573C53.6183 39.4573 53.273 39.7823 52.5454 39.7823C52.2851 39.7823 52.0727 39.9946 52.0727 40.255C52.0727 40.5154 52.2851 40.7277 52.5454 40.7277C53.2305 40.7277 53.7033 40.5302 53.9821 40.3584C54.6672 40.7351 55.3855 40.7277 55.3855 40.7277C56.0337 40.7277 56.5156 40.5209 56.8093 40.351C57.4943 40.7333 58.2219 40.7277 58.2219 40.7277C58.4823 40.7259 58.6946 40.5117 58.6891 40.2513C58.6909 39.9891 58.4729 39.7804 58.2126 39.7823ZM50.1762 38.6005C50.1762 38.6005 49.8493 38.5894 49.5945 38.2902C49.504 38.1868 49.3729 38.1259 49.2344 38.1277C49.0978 38.1277 48.9648 38.1887 48.8743 38.2921C48.8743 38.2921 48.6287 38.6005 48.289 38.6005C48.0286 38.6005 47.8162 38.8128 47.8162 39.0732C47.8162 39.3336 48.0286 39.5459 48.289 39.5459C48.662 39.5459 48.9888 39.3834 49.2252 39.2228C49.7071 39.5607 50.1854 39.5459 50.1854 39.5459C50.4495 39.5422 50.6581 39.328 50.6526 39.0677C50.647 38.8073 50.4347 38.5986 50.1743 38.6005L50.1762 38.6005ZM21.8126 39.5459C21.8126 39.5459 22.2908 39.5625 22.7728 39.2228C23.0091 39.3834 23.336 39.5459 23.709 39.5459C23.9694 39.5459 24.1817 39.3336 24.1817 39.0732C24.1817 38.8128 23.9694 38.6005 23.709 38.6005C23.3692 38.6005 23.1236 38.2921 23.1236 38.2921C23.0331 38.1887 22.9002 38.1277 22.7635 38.1277C22.6269 38.1277 22.4939 38.1868 22.4034 38.2902C22.1486 38.5894 21.8218 38.6005 21.8218 38.6005C21.5614 38.5968 21.349 38.8054 21.3435 39.0677C21.338 39.328 21.5466 39.5441 21.8107 39.5459L21.8126 39.5459ZM58.2182 37.8914H56.3273C56.067 37.8914 55.8546 38.1037 55.8546 38.3641C55.8546 38.6245 56.067 38.8368 56.3273 38.8368H58.2182C58.4786 38.8368 58.691 38.6245 58.691 38.3641C58.691 38.1037 58.4786 37.8914 58.2182 37.8914ZM13.7819 38.8368H15.6728C15.9331 38.8368 16.1455 38.6245 16.1455 38.3641C16.1455 38.1037 15.9331 37.8914 15.6728 37.8914H13.7819C13.5215 37.8914 13.3091 38.1037 13.3091 38.3641C13.3091 38.6245 13.5215 38.8368 13.7819 38.8368ZM32.2367 36.4732H30.8V37.8822V37.8803C31.0364 37.6329 31.2783 37.3873 31.5238 37.1472C31.7547 36.9219 31.9873 36.7003 32.2274 36.4825L32.2367 36.4732ZM41.2 37.8822V36.4732H39.7634L39.7726 36.4824C40.0145 36.7003 40.2453 36.9219 40.4762 37.1472C40.7218 37.3872 40.9637 37.6328 41.2 37.8803L41.2 37.8822ZM39.3091 34.2296V35.5277H40.8031C40.3211 35.0864 39.8244 34.6524 39.3091 34.2296ZM31.1971 35.5277H32.6911V34.2296C32.1759 34.6525 31.6791 35.0864 31.1971 35.5277ZM35.5274 32.1374C34.87 32.5713 34.2422 33.0182 33.6365 33.4798V35.2636C34.2366 34.778 34.87 34.3071 35.5274 33.8565L35.7361 33.7162C35.6696 33.7642 35.5976 33.8103 35.5274 33.8584V33.8602V32.1374ZM36.4729 33.8566C37.1302 34.3071 37.7637 34.778 38.3638 35.2637V33.4817C37.7581 33.0201 37.1302 32.5714 36.4729 32.1393V33.8603V33.8566ZM44.5092 22.5111L43.2997 23.3162C43.1723 23.403 43.091 23.5507 43.091 23.7095V27.0186C42.9673 27.0186 42.8491 27.0648 42.755 27.1571L41.8095 28.1026C41.7246 28.1912 41.6729 28.3112 41.6729 28.4368V34.1095C41.6729 34.3699 41.8852 34.5823 42.1456 34.5823C42.406 34.5823 42.6183 34.3699 42.6183 34.1095V28.6325L43.091 28.1598V30.8004C43.091 31.0608 43.3034 31.2731 43.5638 31.2731C43.8241 31.2731 44.0365 31.0608 44.0365 30.8004V23.9624L44.5092 23.6485V26.5458C44.5092 26.8061 44.7216 27.0185 44.982 27.0185C45.2423 27.0185 45.4547 26.8061 45.4547 26.5458V20.873H46.618L47.3456 21.9625V30.3274C47.3456 30.5878 47.558 30.8002 47.8183 30.8002C48.0787 30.8002 48.291 30.5878 48.291 30.3274V25.7959L49.2365 26.7414V33.1639C49.2365 33.4242 49.4489 33.6366 49.7092 33.6366C49.9696 33.6366 50.182 33.4242 50.182 33.1639V26.5457C50.182 26.4201 50.1302 26.3001 50.0453 26.2114L48.2911 24.459V21.8184C48.2911 21.7261 48.2634 21.6338 48.2098 21.5562L47.2644 20.138C47.1794 20.0069 47.028 19.9275 46.8729 19.9275H44.982C44.7216 19.9275 44.5092 20.1399 44.5092 20.4003L44.5092 22.5111ZM23.7092 24.4593L21.955 26.2117C21.87 26.3003 21.8183 26.4203 21.8183 26.5459V33.1641C21.8183 33.4244 22.0307 33.6368 22.2911 33.6368C22.5514 33.6368 22.7638 33.4244 22.7638 33.1641V26.7416L23.7093 25.7961V30.3277C23.7093 30.588 23.9216 30.8004 24.182 30.8004C24.4423 30.8004 24.6547 30.588 24.6547 30.3277V21.9628L25.3823 20.8733H26.5456V26.546C26.5456 26.8064 26.758 27.0187 27.0183 27.0187C27.2787 27.0187 27.4911 26.8064 27.4911 26.546V23.6468L27.9638 23.9608V30.7988C27.9638 31.0591 28.1762 31.2715 28.4365 31.2715C28.6969 31.2715 28.9093 31.0591 28.9093 30.7988V28.1582L29.382 28.6309V34.1079C29.382 34.3683 29.5943 34.5806 29.8547 34.5806C30.1151 34.5806 30.3274 34.3683 30.3274 34.1079V28.4371C30.3274 28.3115 30.2757 28.1915 30.1908 28.1028L29.2453 27.1574C29.1512 27.0651 29.033 27.0189 28.9093 27.0189V23.7098C28.9093 23.551 28.828 23.4033 28.7006 23.3165L27.4911 22.5114V20.4007C27.4911 20.1404 27.2787 19.928 27.0183 19.928H25.1274C24.9723 19.928 24.8209 20.0074 24.736 20.1385L23.7905 21.5567C23.7369 21.6343 23.7092 21.7266 23.7092 21.8189L23.7092 24.4593ZM36.0001 13.3095C33.9153 13.3095 32.2183 15.0047 32.2183 17.0913C32.2183 19.178 33.9153 20.8732 36.0001 20.8732C38.085 20.8732 39.782 19.178 39.782 17.0913C39.782 15.0047 38.085 13.3095 36.0001 13.3095ZM36.0001 14.255C37.5642 14.255 38.8365 15.5254 38.8365 17.0913C38.8365 18.6572 37.5642 19.9277 36.0001 19.9277C34.4361 19.9277 33.1638 18.6572 33.1638 17.0913C33.1638 15.5254 34.4361 14.255 36.0001 14.255Z" fill="#ABE0F0"/>
</g>
<defs>
<clipPath id="clip0_606_2173">
<rect width="52" height="52" fill="white" transform="translate(10 10)"/>
</clipPath>
</defs>
</svg>
