<svg width="94" height="93" viewBox="0 0 94 93" fill="none" xmlns="http://www.w3.org/2000/svg">
<g clip-path="url(#clip0_293_1266)">
<path d="M36.5547 35.016L39.9024 41.9301L45.6251 39.1684L39.7657 33.4575L36.5547 35.016Z" fill="white"/>
<path d="M88.2925 28.418C87.7496 27.3086 86.4878 26.7227 85.2769 27.0274L83.8042 27.4024C83.6949 27.4453 83.5699 27.4453 83.4449 27.4297L71.9449 33.0117L71.9605 31.0273L81.1949 26.5546L80.0426 26.0819C79.152 25.7069 78.1403 25.7343 77.2653 26.1523L66.2813 31.4726L66.2657 31.4882L57.4727 35.7538H57.457L47.8867 40.3944H47.8711L40.8164 43.8124L42.8437 48.0077L50.7187 49.5507L59.539 45.2734L59.8437 42.6914C59.914 42.1211 60.4257 41.707 61.0117 41.7734C61.582 41.8437 61.9844 42.3711 61.914 42.9414L60.5937 54.1364L64.9531 52.027L72.7461 36.168C72.9961 35.6524 73.6211 35.4336 74.1367 35.6836C74.6524 35.9492 74.8594 36.5742 74.6094 37.0859L74.0391 38.2539L87.0821 31.9336C88.2227 31.3789 88.8048 30.0859 88.4571 28.8789C88.4141 28.7266 88.3594 28.5742 88.2891 28.4336L88.2925 28.418ZM52.8045 42.402C52.3045 42.652 51.6951 42.4449 51.4568 41.9449C51.2225 41.4449 51.4295 40.8472 51.9295 40.5972C52.4139 40.3628 53.0272 40.5699 53.2615 41.0699C53.4958 41.5699 53.2889 42.1677 52.8045 42.402ZM56.7928 40.4723C56.2928 40.7066 55.6951 40.4996 55.4608 39.9996C55.2108 39.4996 55.4335 38.9019 55.9179 38.6676C56.4179 38.4176 57.0273 38.6246 57.2656 39.1246C57.4999 39.6246 57.2928 40.2223 56.7928 40.4723ZM60.7928 38.527C60.2928 38.777 59.6951 38.5699 59.4608 38.0699C59.2108 37.5699 59.4179 36.9722 59.9179 36.7222C60.4179 36.4878 61.0156 36.6949 61.2656 37.1949C61.4999 37.6949 61.2928 38.2927 60.7928 38.527ZM64.7928 36.5973C64.2928 36.8316 63.6951 36.6246 63.4608 36.1402C63.2108 35.6402 63.4179 35.0308 63.9179 34.7925C64.4179 34.5581 65.0156 34.7652 65.2656 35.2652C65.4999 35.7496 65.2928 36.363 64.7928 36.5973ZM68.7928 34.6676C68.2928 34.9019 67.6951 34.6949 67.4451 34.1949C67.2108 33.6949 67.4178 33.0972 67.9178 32.8629C68.4178 32.6129 69.0155 32.8199 69.2498 33.3199C69.4998 33.8199 69.2928 34.4176 68.7928 34.6676Z" fill="white"/>
<path d="M52.0703 30.4729L57.082 33.6096L62.8906 30.8049L55.6094 28.7502L52.0703 30.4729Z" fill="white"/>
<path d="M82.777 50.438C82.8747 50.4575 82.9762 50.4692 83.0739 50.4692C83.7145 50.4692 84.2887 50.0239 84.4294 49.3754C85.281 45.4496 85.4997 41.4496 85.0778 37.4844C84.9997 36.7227 84.3318 36.1836 83.5505 36.25C82.7888 36.3321 82.2341 37.0157 82.3161 37.7773C82.7029 41.4453 82.5036 45.1484 81.7146 48.7853C81.5544 49.5353 82.0309 50.274 82.777 50.438Z" fill="white"/>
<path d="M10.4018 62.7969C11.9956 62.7969 13.8666 62.6173 16.0541 62.2618C16.2259 62.2344 16.3978 62.1915 16.5697 62.1641C19.4135 66.4649 23.1361 70.2305 27.6477 73.0981C31.3938 75.477 35.4993 77.1567 39.8467 78.0981C42.4873 78.6684 45.1514 78.9497 47.8037 78.9497C54.3193 78.9497 60.7567 77.2466 66.4837 73.9419C67.1478 73.5591 67.3743 72.7075 66.9915 72.0435C66.8743 71.8443 66.7103 71.6958 66.5267 71.5826V65.0553C66.5267 64.7779 66.554 64.5123 66.597 64.2506C63.765 62.7389 59.6517 61.2662 56.097 62.7936C51.2923 64.8639 50.6517 71.0983 47.9017 70.7389C45.6087 70.4342 45.429 66.2233 42.0423 65.4069C39.5579 64.8092 37.347 66.5866 37.2103 66.7116C35.4759 68.1491 34.6791 70.7507 35.0072 73.7233C32.9681 72.9186 31.0072 71.9381 29.1439 70.7585C25.3041 68.3132 22.0658 65.1804 19.5189 61.5944C26.972 59.9382 34.3739 56.8405 41.5699 52.3522C42.2222 51.9459 42.4175 51.0905 42.0152 50.4381C41.6089 49.7896 40.7535 49.5865 40.1011 49.9928C32.8511 54.5162 25.3941 57.5592 17.9101 59.0866C13.5703 51.7038 11.9648 42.8016 13.8437 34.1096C14.6601 30.3362 16.0976 26.758 18.0625 23.5076C21.2773 24.2068 24.6719 23.9646 25.5586 26.1756C26.1836 27.7459 24.8242 28.7186 25.5586 31.7303C26.1016 33.9256 27.0313 34.2303 26.9492 35.8983C26.8672 37.621 25.7539 39.5506 24.1719 40.0663C22.9063 40.4686 22.3946 39.6483 21.3946 40.0663C19.6602 40.8006 18.7696 44.3593 20.004 47.0116C20.297 47.6366 21.1446 49.4569 22.7813 49.7889C25.5586 50.3592 26.879 45.9569 31.1133 45.6209C33.2383 45.4529 34.336 46.4529 35.2813 45.6209C36.3633 44.6638 35.9493 42.4529 35.6407 40.8553C35.1836 38.5076 34.3751 36.91 33.8907 35.8983C32.4727 32.8983 29.6837 26.9686 31.461 24.9963C32.9766 23.2893 37.0587 24.9806 38.0587 23.4416C38.254 23.1212 38.2813 22.6759 38.0587 22.0119C37.1134 19.1642 37.836 18.9963 37.8907 18.5549C38.0977 16.8205 39.7227 14.8752 41.3204 14.7893C42.9024 14.7189 43.2501 16.5549 45.2227 16.7463C46.4454 16.8556 47.3477 16.2619 49.168 15.0666C51 13.8596 52.7774 12.6916 52.961 10.9416C53.086 9.76185 52.3633 8.95715 51.9454 8.12125C51.7774 7.78531 51.6563 7.38687 51.5626 6.95325C52.7462 7.08606 53.9337 7.26184 55.1173 7.51966C56.7306 7.86732 58.2853 8.32044 59.7462 8.86346C66.4376 11.3088 72.1412 15.7033 76.2382 21.5705C76.6796 22.1994 77.5468 22.3517 78.1718 21.9142C78.8007 21.4728 78.953 20.6095 78.5155 19.9806C74.0897 13.6447 67.9295 8.89861 60.7035 6.25761C59.1254 5.67167 57.4418 5.18341 55.6996 4.80451C42.7896 2.01541 29.6726 6.05841 20.6016 15.6245C15.8633 20.5737 12.5821 26.7655 11.1211 33.5305C10.3243 37.2102 10.1211 40.9211 10.4297 44.5615C8.61722 45.1904 5.26952 46.8076 3.46492 50.5849C2.39852 52.8154 1.23832 57.3935 3.63289 60.3857C4.94149 62.0224 7.06649 62.8115 10.3985 62.8115L10.4018 62.7969ZM5.97597 51.7659C7.17907 49.2464 9.32757 47.9808 10.7807 47.3792C11.4799 51.6761 12.9252 55.8129 15.0229 59.6063C8.30017 60.6218 6.53457 59.5438 5.80407 58.6336C4.37437 56.8484 5.12438 53.5477 5.97204 51.7664L5.97597 51.7659Z" fill="white"/>
<path d="M85.2773 62.277H82.1523V54.984H83.5429V56.7184C83.5429 57.2926 84.0077 57.7614 84.5859 57.7614C85.1601 57.7614 85.6289 57.2965 85.6289 56.7184V53.9411C85.6289 53.3669 85.1641 52.8981 84.5859 52.8981H72.0859C71.5117 52.8981 71.0429 53.3629 71.0429 53.9411V56.7184C71.0429 57.2926 71.5077 57.7614 72.0859 57.7614C72.6601 57.7614 73.1289 57.2965 73.1289 56.7184V54.984H74.5195V62.277H71.3945C69.8593 62.277 68.6172 63.5192 68.6172 65.0543V83.1093C68.6172 84.6445 69.8594 85.8866 71.3945 85.8866V88.6639C71.3945 89.4295 72.0156 90.0545 72.7851 90.0545H74.1757C74.9413 90.0545 75.5663 89.4334 75.5663 88.6639V85.8866H81.121V88.6639C81.121 89.4295 81.7421 90.0545 82.5116 90.0545H83.9022C84.6678 90.0545 85.2928 89.4334 85.2928 88.6639V85.8866C86.828 85.8866 88.0701 84.6444 88.0701 83.1093V65.0543C88.0701 63.5191 86.8279 62.277 85.2928 62.277H85.2773ZM76.5976 54.984H80.0703V62.277H76.5976V54.984ZM76.5976 80.332C76.5976 80.9062 76.1327 81.375 75.5546 81.375C74.9804 81.375 74.5116 80.9101 74.5116 80.332V67.832C74.5116 67.2578 74.9764 66.789 75.5546 66.789C76.1288 66.789 76.5976 67.2538 76.5976 67.832V80.332ZM80.0703 80.332V67.832C80.0703 67.2578 80.5351 66.789 81.1133 66.789C81.6875 66.789 82.1563 67.2538 82.1563 67.832V80.332C82.1563 80.9062 81.6914 81.375 81.1133 81.375C80.5391 81.375 80.0703 80.9101 80.0703 80.332Z" fill="white"/>
</g>
<defs>
<clipPath id="clip0_293_1266">
<rect width="94" height="93" fill="white"/>
</clipPath>
</defs>
</svg>
